<svg width="24" height="25" viewBox="0 0 24 25" fill="none" xmlns="http://www.w3.org/2000/svg">
<path d="M17.613 16.016C19.0654 14.034 19.716 11.5767 19.4345 9.13572C19.1529 6.69471 17.9601 4.45001 16.0947 2.85069C14.2292 1.25138 11.8286 0.415404 9.37326 0.510013C6.91789 0.604623 4.58878 1.62284 2.85191 3.36096C1.11503 5.09908 0.0984798 7.42891 0.00562703 9.88435C-0.0872257 12.3398 0.750468 14.7397 2.35112 16.6041C3.95176 18.4684 6.19732 19.6596 8.63853 19.9394C11.0797 20.2192 13.5366 19.5669 15.5175 18.113H15.516C15.561 18.173 15.609 18.23 15.663 18.2855L21.438 24.0605C21.7193 24.342 22.1008 24.5002 22.4987 24.5003C22.8966 24.5004 23.2783 24.3425 23.5598 24.0612C23.8412 23.78 23.9994 23.3984 23.9996 23.0005C23.9997 22.6026 23.8418 22.221 23.5605 21.9395L17.7855 16.1645C17.7319 16.1102 17.6742 16.0616 17.613 16.016ZM18 10.25C18 11.3334 17.7866 12.4062 17.372 13.4071C16.9574 14.4081 16.3497 15.3175 15.5836 16.0836C14.8176 16.8497 13.9081 17.4574 12.9071 17.872C11.9062 18.2866 10.8334 18.5 9.75 18.5C8.6666 18.5 7.5938 18.2866 6.59287 17.872C5.59193 17.4574 4.68246 16.8497 3.91637 16.0836C3.15029 15.3175 2.5426 14.4081 2.128 13.4071C1.7134 12.4062 1.5 11.3334 1.5 10.25C1.5 8.06196 2.3692 5.96354 3.91637 4.41637C5.46355 2.86919 7.56197 2 9.75 2C11.938 2 14.0365 2.86919 15.5836 4.41637C17.1308 5.96354 18 8.06196 18 10.25Z" fill="#68687D"/>
</svg>
